<svg width="82" height="72" viewBox="0 0 82 72" fill="none" xmlns="http://www.w3.org/2000/svg">
<path d="M43.7797 51C43.7797 51 32.7588 51 25.3644 51C11.356 51 0 39.5833 0 25.5C0 11.4167 11.356 0 25.3644 0C34.8894 0 43.1882 5.27837 47.5245 13.0843C51.1583 10.1436 55.7772 8.38356 60.8051 8.38356C72.5107 8.38356 82 17.9236 82 29.6918C82 41.46 72.5107 51 60.8051 51C53.9909 51 43.7797 51 43.7797 51Z" fill="url(#paint0_linear_282_82)"/>
<path d="M41 63L46.6568 63M41 63H32L35.3427 63.0005M41 63L45.0001 67M41 63L45 58.9994M41 63L34.6356 69.3633M41 63V72L41 68.6568M41 63V57.3431M41 63L34.6365 69.3646L36.9999 67M41 63L37 59M41 63L34.6366 69.3635M41 63L34.6354 69.3644M41 63L47.3644 69.3646L45.0001 67M41 63L35.3427 63.0005M41 63H50L46.6568 63M41 63L47.3635 56.6354L45 58.9994M41 63L36.9999 67M41 63L41 68.6568M46.6568 63L48.7781 65.1213M46.6568 63L48.7781 60.8787M45.0001 67L47.3635 69.3633M45.0001 67L47.3646 69.3635M45.0001 67L47.3633 69.3644M45.0001 67L45 70M45.0001 67H48M45 58.9994L47.3644 56.6367M45 58.9994L47.3633 56.6365M45 58.9994L47.3646 56.6356M45 58.9994L48 59M45 58.9994V56M41 57.3431V54M41 57.3431L43.1213 55.2218M41 57.3431L38.8786 55.2218M37 59L34.6365 56.6367M37 59L34.6356 56.6354M37 59V56M37 59H34M37 59L34.6366 56.6356M37 59L34.6354 56.6365M35.3427 63.0005L33.2218 60.8787M35.3427 63.0005L33.2218 65.1213M36.9999 67L34 67M36.9999 67L37 70M41 68.6568L38.8787 70.7782M41 68.6568L43.1213 70.7782" stroke="url(#paint1_linear_282_82)" stroke-width="1.25"/>
<path d="M20 63L25.6568 63M20 63H11L14.3427 63.0005M20 63L24.0001 67M20 63L24 58.9994M20 63L13.6356 69.3633M20 63V72L20 68.6568M20 63V57.3431M20 63L13.6365 69.3646L15.9999 67M20 63L16 59M20 63L13.6366 69.3635M20 63L13.6354 69.3644M20 63L26.3644 69.3646L24.0001 67M20 63L14.3427 63.0005M20 63H29L25.6568 63M20 63L26.3635 56.6354L24 58.9994M20 63L15.9999 67M20 63L20 68.6568M25.6568 63L27.7781 65.1213M25.6568 63L27.7781 60.8787M24.0001 67L26.3635 69.3633M24.0001 67L26.3646 69.3635M24.0001 67L26.3633 69.3644M24.0001 67L24 70M24.0001 67H27M24 58.9994L26.3644 56.6367M24 58.9994L26.3633 56.6365M24 58.9994L26.3646 56.6356M24 58.9994L27 59M24 58.9994V56M20 57.3431V54M20 57.3431L22.1213 55.2218M20 57.3431L17.8786 55.2218M16 59L13.6365 56.6367M16 59L13.6356 56.6354M16 59V56M16 59H13M16 59L13.6366 56.6356M16 59L13.6354 56.6365M14.3427 63.0005L12.2218 60.8787M14.3427 63.0005L12.2218 65.1213M15.9999 67L13 67M15.9999 67L16 70M20 68.6568L17.8787 70.7782M20 68.6568L22.1213 70.7782" stroke="url(#paint2_linear_282_82)" stroke-width="1.25"/>
<path d="M62 63L67.6568 63M62 63H53L56.3427 63.0005M62 63L66.0001 67M62 63L66 58.9994M62 63L55.6356 69.3633M62 63V72L62 68.6568M62 63V57.3431M62 63L55.6365 69.3646L57.9999 67M62 63L58 59M62 63L55.6366 69.3635M62 63L55.6354 69.3644M62 63L68.3644 69.3646L66.0001 67M62 63L56.3427 63.0005M62 63H71L67.6568 63M62 63L68.3635 56.6354L66 58.9994M62 63L57.9999 67M62 63L62 68.6568M67.6568 63L69.7781 65.1213M67.6568 63L69.7781 60.8787M66.0001 67L68.3635 69.3633M66.0001 67L68.3646 69.3635M66.0001 67L68.3633 69.3644M66.0001 67L66 70M66.0001 67H69M66 58.9994L68.3644 56.6367M66 58.9994L68.3633 56.6365M66 58.9994L68.3646 56.6356M66 58.9994L69 59M66 58.9994V56M62 57.3431V54M62 57.3431L64.1213 55.2218M62 57.3431L59.8786 55.2218M58 59L55.6365 56.6367M58 59L55.6356 56.6354M58 59V56M58 59H55M58 59L55.6366 56.6356M58 59L55.6354 56.6365M56.3427 63.0005L54.2218 60.8787M56.3427 63.0005L54.2218 65.1213M57.9999 67L55 67M57.9999 67L58 70M62 68.6568L59.8787 70.7782M62 68.6568L64.1213 70.7782" stroke="url(#paint3_linear_282_82)" stroke-width="1.25"/>
<defs>
<linearGradient id="paint0_linear_282_82" x1="41" y1="0" x2="41" y2="51" gradientUnits="userSpaceOnUse">
<stop stop-color="#C8C8C8"/>
<stop offset="1" stop-color="#929292"/>
</linearGradient>
<linearGradient id="paint1_linear_282_82" x1="41" y1="54" x2="41" y2="72" gradientUnits="userSpaceOnUse">
<stop stop-color="#959595"/>
<stop offset="1" stop-color="#939393"/>
</linearGradient>
<linearGradient id="paint2_linear_282_82" x1="20" y1="54" x2="20" y2="72" gradientUnits="userSpaceOnUse">
<stop stop-color="#959595"/>
<stop offset="1" stop-color="#939393"/>
</linearGradient>
<linearGradient id="paint3_linear_282_82" x1="62" y1="54" x2="62" y2="72" gradientUnits="userSpaceOnUse">
<stop stop-color="#959595"/>
<stop offset="1" stop-color="#939393"/>
</linearGradient>
</defs>
</svg>
