<svg width="82" height="74" viewBox="0 0 82 74" fill="none" xmlns="http://www.w3.org/2000/svg">
<path d="M43.7797 51C43.7797 51 32.7588 51 25.3644 51C11.356 51 0 39.5833 0 25.5C0 11.4167 11.356 0 25.3644 0C34.8894 0 43.1882 5.27837 47.5245 13.0843C51.1583 10.1436 55.7772 8.38356 60.8051 8.38356C72.5107 8.38356 82 17.9236 82 29.6918C82 41.46 72.5107 51 60.8051 51C53.9909 51 43.7797 51 43.7797 51Z" fill="url(#paint0_linear_298_96)"/>
<path d="M36.1969 63.4393C27.971 69.941 41.3874 77.687 42.9051 67.3123L45.3971 55.25L36.1969 63.4393Z" fill="url(#paint1_linear_298_96)"/>
<path d="M52.1969 63.4393C43.971 69.941 57.3874 77.687 58.9051 67.3123L61.3971 55.25L52.1969 63.4393Z" fill="url(#paint2_linear_298_96)"/>
<path d="M20.1969 63.4393C11.971 69.941 25.3874 77.687 26.9051 67.3123L29.3971 55.25L20.1969 63.4393Z" fill="url(#paint3_linear_298_96)"/>
<defs>
<linearGradient id="paint0_linear_298_96" x1="41" y1="0" x2="41" y2="51" gradientUnits="userSpaceOnUse">
<stop stop-color="#C8C8C8"/>
<stop offset="1" stop-color="#929292"/>
</linearGradient>
<linearGradient id="paint1_linear_298_96" x1="45.3971" y1="55.25" x2="35.8971" y2="71.7045" gradientUnits="userSpaceOnUse">
<stop stop-color="#0094FF"/>
<stop offset="1" stop-color="#00D1FF"/>
</linearGradient>
<linearGradient id="paint2_linear_298_96" x1="61.3971" y1="55.25" x2="51.8971" y2="71.7045" gradientUnits="userSpaceOnUse">
<stop stop-color="#0094FF"/>
<stop offset="1" stop-color="#00D1FF"/>
</linearGradient>
<linearGradient id="paint3_linear_298_96" x1="29.3971" y1="55.25" x2="19.8971" y2="71.7045" gradientUnits="userSpaceOnUse">
<stop stop-color="#0094FF"/>
<stop offset="1" stop-color="#00D1FF"/>
</linearGradient>
</defs>
</svg>
