<svg width="86" height="75" viewBox="0 0 86 75" fill="none" xmlns="http://www.w3.org/2000/svg">
<path d="M49 1V5M49 69V73M67 5.8231L65 9.28721M33 64.7129L31 68.177M80.1769 19L76.7128 21M21.2872 53L17.8231 55M85 37H81M17 37H13M80.1769 55L76.7128 53M21.2872 21L17.8231 19M67 68.1769L65 64.7128M33.0001 9.28717L31.0001 5.82307" stroke="url(#paint0_linear_278_5)" stroke-width="2" stroke-linecap="round"/>
<circle cx="49" cy="37" r="27" fill="url(#paint1_linear_278_5)"/>
<path d="M43.7797 75C43.7797 75 32.7588 75 25.3644 75C11.356 75 0 63.5833 0 49.5C0 35.4167 11.356 24 25.3644 24C34.8894 24 43.1882 29.2784 47.5245 37.0843C51.1583 34.1436 55.7772 32.3836 60.8051 32.3836C72.5107 32.3836 82 41.9236 82 53.6918C82 65.46 72.5107 75 60.8051 75C53.9909 75 43.7797 75 43.7797 75Z" fill="url(#paint2_linear_278_5)"/>
<defs>
<linearGradient id="paint0_linear_278_5" x1="49" y1="1" x2="49" y2="73" gradientUnits="userSpaceOnUse">
<stop stop-color="#FFC700"/>
<stop offset="1" stop-color="#FF5C00"/>
</linearGradient>
<linearGradient id="paint1_linear_278_5" x1="49" y1="10" x2="49" y2="64" gradientUnits="userSpaceOnUse">
<stop stop-color="#FFC700"/>
<stop offset="1" stop-color="#FF5C00"/>
</linearGradient>
<linearGradient id="paint2_linear_278_5" x1="41" y1="24" x2="41" y2="75" gradientUnits="userSpaceOnUse">
<stop stop-color="#C8C8C8"/>
<stop offset="1" stop-color="#929292"/>
</linearGradient>
</defs>
</svg>
