<svg width="82" height="74" viewBox="0 0 82 74" fill="none" xmlns="http://www.w3.org/2000/svg">
<path d="M43.7797 51C43.7797 51 32.7588 51 25.3644 51C11.356 51 0 39.5833 0 25.5C0 11.4167 11.356 0 25.3644 0C34.8894 0 43.1882 5.27837 47.5245 13.0843C51.1583 10.1436 55.7772 8.38356 60.8051 8.38356C72.5107 8.38356 82 17.9236 82 29.6918C82 41.46 72.5107 51 60.8051 51C53.9909 51 43.7797 51 43.7797 51Z" fill="url(#paint0_linear_282_44)"/>
<path d="M44.4912 63.4393C36.2653 69.941 49.6817 77.687 51.1994 67.3123L53.6915 55.25L44.4912 63.4393Z" fill="url(#paint1_linear_282_44)"/>
<path d="M25.1969 63.4393C16.971 69.941 30.3874 77.687 31.9051 67.3123L34.3971 55.25L25.1969 63.4393Z" fill="url(#paint2_linear_282_44)"/>
<defs>
<linearGradient id="paint0_linear_282_44" x1="41" y1="0" x2="41" y2="51" gradientUnits="userSpaceOnUse">
<stop stop-color="#C8C8C8"/>
<stop offset="1" stop-color="#929292"/>
</linearGradient>
<linearGradient id="paint1_linear_282_44" x1="53.6914" y1="55.25" x2="44.1914" y2="71.7045" gradientUnits="userSpaceOnUse">
<stop stop-color="#0094FF"/>
<stop offset="1" stop-color="#00D1FF"/>
</linearGradient>
<linearGradient id="paint2_linear_282_44" x1="34.3971" y1="55.25" x2="24.8971" y2="71.7045" gradientUnits="userSpaceOnUse">
<stop stop-color="#0094FF"/>
<stop offset="1" stop-color="#00D1FF"/>
</linearGradient>
</defs>
</svg>
