<svg width="22" height="46" viewBox="0 0 22 46" fill="none" xmlns="http://www.w3.org/2000/svg">
<path d="M9.52403 0.670044C11.4254 0.670044 13.12 0.938711 14.608 1.47604C16.096 2.01338 17.3567 2.75738 18.39 3.70805C19.4234 4.61738 20.2087 5.71271 20.746 6.99404C21.2834 8.27538 21.552 9.66005 21.552 11.148C21.552 12.2227 21.3867 13.256 21.056 14.248C20.7254 15.1987 20.2707 16.1287 19.692 17.038C19.1134 17.906 18.452 18.7534 17.708 19.58C16.964 20.4067 16.1994 21.2127 15.414 21.998C13.678 23.5687 12.3554 24.8914 11.446 25.966C10.578 26.9994 10.144 28.198 10.144 29.562C10.144 30.0994 10.1647 30.5747 10.206 30.988C10.2887 31.36 10.4334 31.8354 10.64 32.414L5.30803 33.282C5.10137 32.7034 4.91537 32.0834 4.75003 31.422C4.62603 30.7194 4.56403 30.0167 4.56403 29.314C4.56403 27.5367 4.99803 25.966 5.86603 24.602C6.73403 23.1967 8.01537 21.6467 9.71003 19.952C10.454 19.208 11.1567 18.5054 11.818 17.844C12.4794 17.1414 13.0374 16.4594 13.492 15.798C13.988 15.0954 14.36 14.3927 14.608 13.69C14.8974 12.9874 15.042 12.202 15.042 11.334C15.042 9.97004 14.5667 8.75071 13.616 7.67604C12.7067 6.56004 11.1567 6.00205 8.96603 6.00205C7.97403 6.00205 6.98203 6.14671 5.99003 6.43604C4.99803 6.72538 4.00603 7.22138 3.01403 7.92404L0.410034 3.33604C1.6087 2.46804 3.0347 1.80671 4.68803 1.35204C6.34137 0.897377 7.95337 0.670044 9.52403 0.670044ZM4.44003 41.404C4.44003 40.2054 4.85337 39.2134 5.68003 38.428C6.5067 37.6427 7.45737 37.25 8.53203 37.25C9.64803 37.25 10.5987 37.6427 11.384 38.428C12.1694 39.2134 12.562 40.2054 12.562 41.404C12.562 42.6854 12.1694 43.7187 11.384 44.504C10.5987 45.248 9.64803 45.62 8.53203 45.62C7.45737 45.62 6.5067 45.248 5.68003 44.504C4.85337 43.7187 4.44003 42.6854 4.44003 41.404Z" fill="url(#paint0_linear_331_5)"/>
<defs>
<linearGradient id="paint0_linear_331_5" x1="10.981" y1="0.670044" x2="10.981" y2="45.62" gradientUnits="userSpaceOnUse">
<stop stop-color="#C8C8C8"/>
<stop offset="1" stop-color="#929292"/>
</linearGradient>
</defs>
</svg>
