<svg width="82" height="74" viewBox="0 0 82 74" fill="none" xmlns="http://www.w3.org/2000/svg">
<path d="M43.7797 51C43.7797 51 32.7588 51 25.3644 51C11.356 51 0 39.5833 0 25.5C0 11.4167 11.356 0 25.3644 0C34.8894 0 43.1882 5.27837 47.5245 13.0843C51.1583 10.1436 55.7772 8.38356 60.8051 8.38356C72.5107 8.38356 82 17.9236 82 29.6918C82 41.46 72.5107 51 60.8051 51C53.9909 51 43.7797 51 43.7797 51Z" fill="url(#paint0_linear_298_102)"/>
<path d="M54.1969 63.4393C45.971 69.941 59.3874 77.687 60.9051 67.3123L63.3971 55.25L54.1969 63.4393Z" fill="url(#paint1_linear_298_102)"/>
<path d="M18.1969 63.4393C9.97095 69.941 23.3874 77.687 24.9051 67.3123L27.3971 55.25L18.1969 63.4393Z" fill="url(#paint2_linear_298_102)"/>
<path d="M40 63L45.6568 63M40 63H31L34.3427 63.0005M40 63L44.0001 67M40 63L44 58.9994M40 63L33.6356 69.3633M40 63V72L40 68.6568M40 63V57.3431M40 63L33.6365 69.3646L35.9999 67M40 63L36 59M40 63L33.6366 69.3635M40 63L33.6354 69.3644M40 63L46.3644 69.3646L44.0001 67M40 63L34.3427 63.0005M40 63H49L45.6568 63M40 63L46.3635 56.6354L44 58.9994M40 63L35.9999 67M40 63L40 68.6568M45.6568 63L47.7781 65.1213M45.6568 63L47.7781 60.8787M44.0001 67L46.3635 69.3633M44.0001 67L46.3646 69.3635M44.0001 67L46.3633 69.3644M44.0001 67L44 70M44.0001 67H47M44 58.9994L46.3644 56.6367M44 58.9994L46.3633 56.6365M44 58.9994L46.3646 56.6356M44 58.9994L47 59M44 58.9994V56M40 57.3431V54M40 57.3431L42.1213 55.2218M40 57.3431L37.8786 55.2218M36 59L33.6365 56.6367M36 59L33.6356 56.6354M36 59V56M36 59H33M36 59L33.6366 56.6356M36 59L33.6354 56.6365M34.3427 63.0005L32.2218 60.8787M34.3427 63.0005L32.2218 65.1213M35.9999 67L33 67M35.9999 67L36 70M40 68.6568L37.8787 70.7782M40 68.6568L42.1213 70.7782" stroke="url(#paint3_linear_298_102)"/>
<defs>
<linearGradient id="paint0_linear_298_102" x1="41" y1="0" x2="41" y2="51" gradientUnits="userSpaceOnUse">
<stop stop-color="#C8C8C8"/>
<stop offset="1" stop-color="#929292"/>
</linearGradient>
<linearGradient id="paint1_linear_298_102" x1="63.3971" y1="55.25" x2="53.8971" y2="71.7045" gradientUnits="userSpaceOnUse">
<stop stop-color="#0094FF"/>
<stop offset="1" stop-color="#00D1FF"/>
</linearGradient>
<linearGradient id="paint2_linear_298_102" x1="27.3971" y1="55.25" x2="17.8971" y2="71.7045" gradientUnits="userSpaceOnUse">
<stop stop-color="#0094FF"/>
<stop offset="1" stop-color="#00D1FF"/>
</linearGradient>
<linearGradient id="paint3_linear_298_102" x1="40" y1="54" x2="40" y2="72" gradientUnits="userSpaceOnUse">
<stop stop-color="#959595"/>
<stop offset="1" stop-color="#939393"/>
</linearGradient>
</defs>
</svg>
