<svg width="82" height="74" viewBox="0 0 82 74" fill="none" xmlns="http://www.w3.org/2000/svg">
    <path d="M43.7797 51C43.7797 51 32.7588 51 25.3644 51C11.356 51 0 39.5833 0 25.5C0 11.4167 11.356 0 25.3644 0C34.8894 0 43.1882 5.27837 47.5245 13.0843C51.1583 10.1436 55.7772 8.38356 60.8051 8.38356C72.5107 8.38356 82 17.9236 82 29.6918C82 41.46 72.5107 51 60.8051 51C53.9909 51 43.7797 51 43.7797 51Z" fill="#C8C8C8"/>
    <path d="M36.1969 63.4393C27.971 69.941 41.3874 77.687 42.9051 67.3123L45.3971 55.25L36.1969 63.4393Z" fill="#12CBF3"/>
    <path d="M52.1969 63.4393C43.971 69.941 57.3874 77.687 58.9051 67.3123L61.3971 55.25L52.1969 63.4393Z" fill="#12CBF3"/>
    <path d="M20.1969 63.4393C11.971 69.941 25.3874 77.687 26.9051 67.3123L29.3971 55.25L20.1969 63.4393Z" fill="#12CBF3"/>
</svg>
