<svg width="82" height="74" viewBox="0 0 82 74" fill="none" xmlns="http://www.w3.org/2000/svg">
    <path d="M43.7797 51C43.7797 51 32.7588 51 25.3644 51C11.356 51 0 39.5833 0 25.5C0 11.4167 11.356 0 25.3644 0C34.8894 0 43.1882 5.27837 47.5245 13.0843C51.1583 10.1436 55.7772 8.38356 60.8051 8.38356C72.5107 8.38356 82 17.9236 82 29.6918C82 41.46 72.5107 51 60.8051 51C53.9909 51 43.7797 51 43.7797 51Z" fill="#C8C8C8"/>
    <path d="M33.1969 63.4393C24.971 69.941 38.3874 77.687 39.9051 67.3123L42.3971 55.25L33.1969 63.4393Z" fill="#12CBF3"/>
</svg>
