<svg width="82" height="72" viewBox="0 0 82 72" fill="none" xmlns="http://www.w3.org/2000/svg">
    <path d="M43.7797 51C43.7797 51 32.7588 51 25.3644 51C11.356 51 0 39.5833 0 25.5C0 11.4167 11.356 0 25.3644 0C34.8894 0 43.1882 5.27837 47.5245 13.0843C51.1583 10.1436 55.7772 8.38356 60.8051 8.38356C72.5107 8.38356 82 17.9236 82 29.6918C82 41.46 72.5107 51 60.8051 51C53.9909 51 43.7797 51 43.7797 51Z" fill="#C8C8C8"/>
    <path d="M41 63L46.6568 63M41 63H32L35.3427 63.0005M41 63L45.0001 67M41 63L45 58.9994M41 63L34.6356 69.3633M41 63V72L41 68.6568M41 63V57.3431M41 63L34.6365 69.3646L36.9999 67M41 63L37 59M41 63L34.6366 69.3635M41 63L34.6354 69.3644M41 63L47.3644 69.3646L45.0001 67M41 63L35.3427 63.0005M41 63H50L46.6568 63M41 63L47.3635 56.6354L45 58.9994M41 63L36.9999 67M41 63L41 68.6568M46.6568 63L48.7781 65.1213M46.6568 63L48.7781 60.8787M45.0001 67L47.3635 69.3633M45.0001 67L47.3646 69.3635M45.0001 67L47.3633 69.3644M45.0001 67L45 70M45.0001 67H48M45 58.9994L47.3644 56.6367M45 58.9994L47.3633 56.6365M45 58.9994L47.3646 56.6356M45 58.9994L48 59M45 58.9994V56M41 57.3431V54M41 57.3431L43.1213 55.2218M41 57.3431L38.8786 55.2218M37 59L34.6365 56.6367M37 59L34.6356 56.6354M37 59V56M37 59H34M37 59L34.6366 56.6356M37 59L34.6354 56.6365M35.3427 63.0005L33.2218 60.8787M35.3427 63.0005L33.2218 65.1213M36.9999 67L34 67M36.9999 67L37 70M41 68.6568L38.8787 70.7782M41 68.6568L43.1213 70.7782" stroke="#C8C8C8"/>
</svg>
