<svg width="82" height="72" viewBox="0 0 82 72" fill="none" xmlns="http://www.w3.org/2000/svg">
    <path d="M43.7797 51C43.7797 51 32.7588 51 25.3644 51C11.356 51 0 39.5833 0 25.5C0 11.4167 11.356 0 25.3644 0C34.8894 0 43.1882 5.27837 47.5245 13.0843C51.1583 10.1436 55.7772 8.38356 60.8051 8.38356C72.5107 8.38356 82 17.9236 82 29.6918C82 41.46 72.5107 51 60.8051 51C53.9909 51 43.7797 51 43.7797 51Z" fill="#C8C8C8"/>
    <path d="M29 63L34.6568 63M29 63H20L23.3427 63.0005M29 63L33.0001 67M29 63L33 58.9994M29 63L22.6356 69.3633M29 63V72L29 68.6568M29 63V57.3431M29 63L22.6365 69.3646L24.9999 67M29 63L25 59M29 63L22.6366 69.3635M29 63L22.6354 69.3644M29 63L35.3644 69.3646L33.0001 67M29 63L23.3427 63.0005M29 63H38L34.6568 63M29 63L35.3635 56.6354L33 58.9994M29 63L24.9999 67M29 63L29 68.6568M34.6568 63L36.7781 65.1213M34.6568 63L36.7781 60.8787M33.0001 67L35.3635 69.3633M33.0001 67L35.3646 69.3635M33.0001 67L35.3633 69.3644M33.0001 67L33 70M33.0001 67H36M33 58.9994L35.3644 56.6367M33 58.9994L35.3633 56.6365M33 58.9994L35.3646 56.6356M33 58.9994L36 59M33 58.9994V56M29 57.3431V54M29 57.3431L31.1213 55.2218M29 57.3431L26.8786 55.2218M25 59L22.6365 56.6367M25 59L22.6356 56.6354M25 59V56M25 59H22M25 59L22.6366 56.6356M25 59L22.6354 56.6365M23.3427 63.0005L21.2218 60.8787M23.3427 63.0005L21.2218 65.1213M24.9999 67L22 67M24.9999 67L25 70M29 68.6568L26.8787 70.7782M29 68.6568L31.1213 70.7782" stroke="#C8C8C8"/>
    <path d="M53 63L58.6568 63M53 63H44L47.3427 63.0005M53 63L57.0001 67M53 63L57 58.9994M53 63L46.6356 69.3633M53 63V72L53 68.6568M53 63V57.3431M53 63L46.6365 69.3646L48.9999 67M53 63L49 59M53 63L46.6366 69.3635M53 63L46.6354 69.3644M53 63L59.3644 69.3646L57.0001 67M53 63L47.3427 63.0005M53 63H62L58.6568 63M53 63L59.3635 56.6354L57 58.9994M53 63L48.9999 67M53 63L53 68.6568M58.6568 63L60.7781 65.1213M58.6568 63L60.7781 60.8787M57.0001 67L59.3635 69.3633M57.0001 67L59.3646 69.3635M57.0001 67L59.3633 69.3644M57.0001 67L57 70M57.0001 67H60M57 58.9994L59.3644 56.6367M57 58.9994L59.3633 56.6365M57 58.9994L59.3646 56.6356M57 58.9994L60 59M57 58.9994V56M53 57.3431V54M53 57.3431L55.1213 55.2218M53 57.3431L50.8786 55.2218M49 59L46.6365 56.6367M49 59L46.6356 56.6354M49 59V56M49 59H46M49 59L46.6366 56.6356M49 59L46.6354 56.6365M47.3427 63.0005L45.2218 60.8787M47.3427 63.0005L45.2218 65.1213M48.9999 67L46 67M48.9999 67L49 70M53 68.6568L50.8787 70.7782M53 68.6568L55.1213 70.7782" stroke="#C8C8C8"/>
</svg>
