<svg width="22" height="46" fill="none" version="1.1" viewBox="0 0 22 46" xmlns="http://www.w3.org/2000/svg">
    <path d="m9.524 0.67004c1.9014 0 3.596 0.26867 5.084 0.806 1.488 0.53734 2.7487 1.2813 3.782 2.232 1.0334 0.90933 1.8187 2.0047 2.356 3.286 0.5374 1.2813 0.806 2.666 0.806 4.154 0 1.0747-0.1653 2.108-0.496 3.1-0.3306 0.9507-0.7853 1.8807-1.364 2.79-0.5786 0.868-1.24 1.7154-1.984 2.542-0.744 0.8267-1.5086 1.6327-2.294 2.418-1.736 1.5707-3.0586 2.8934-3.968 3.968-0.868 1.0334-1.302 2.232-1.302 3.596 0 0.5374 0.0207 1.0127 0.062 1.426 0.0827 0.372 0.2274 0.8474 0.434 1.426l-5.332 0.868c-0.20666-0.5786-0.39266-1.1986-0.558-1.86-0.124-0.7026-0.186-1.4053-0.186-2.108 0-1.7773 0.434-3.348 1.302-4.712 0.868-1.4053 2.1493-2.9553 3.844-4.65 0.74397-0.744 1.4467-1.4466 2.108-2.108 0.6614-0.7026 1.2194-1.3846 1.674-2.046 0.496-0.7026 0.868-1.4053 1.116-2.108 0.2894-0.7026 0.434-1.488 0.434-2.356 0-1.364-0.4753-2.5833-1.426-3.658-0.9093-1.116-2.4593-1.674-4.65-1.674-0.992 0-1.984 0.14466-2.976 0.43399-0.992 0.28934-1.984 0.78534-2.976 1.488l-2.604-4.588c1.1987-0.868 2.6247-1.5293 4.278-1.984 1.6533-0.45466 3.2653-0.682 4.836-0.682zm-5.084 40.734c0-1.1986 0.41334-2.1906 1.24-2.976 0.82667-0.7853 1.7773-1.178 2.852-1.178 1.116 0 2.0667 0.3927 2.852 1.178 0.7854 0.7854 1.178 1.7774 1.178 2.976 0 1.2814-0.3926 2.3147-1.178 3.1-0.7853 0.744-1.736 1.116-2.852 1.116-1.0747 0-2.0253-0.372-2.852-1.116-0.82666-0.7853-1.24-1.8186-1.24-3.1z" fill="#C8C8C8"/>
</svg>
