<svg width="111" height="74" viewBox="0 0 111 74" fill="none" xmlns="http://www.w3.org/2000/svg">
    <path d="M83.0339 38C83.0339 38 74.9699 38 69.5593 38C59.3093 38 51 29.7173 51 19.5C51 9.28273 59.3093 1 69.5593 1C76.5289 1 82.6011 4.82941 85.774 10.4925C88.4329 8.3591 91.8126 7.08219 95.4915 7.08219C104.057 7.08219 111 14.0034 111 22.5411C111 31.0788 104.057 38 95.4915 38C90.5055 38 83.0339 38 83.0339 38Z" fill="#C8C8C8"/>
    <circle cx="55" cy="37" r="29" fill="#FFC700"/>
    <path d="M55 1V5M55 69V73M73 5.8231L71 9.28721M39 64.7129L37 68.177M86.1769 19L82.7128 21M27.2872 53L23.8231 55M91 37H87M23 37H19M86.1769 55L82.7128 53M27.2872 21L23.8231 19M73 68.1769L71 64.7128M39.0001 9.28717L37.0001 5.82307" stroke="#FFC700" stroke-width="3" stroke-linecap="round"/>
    <path d="M32.0339 73C32.0339 73 23.9699 73 18.5593 73C8.30929 73 0 64.7173 0 54.5C0 44.2827 8.30929 36 18.5593 36C25.5289 36 31.6011 39.8294 34.774 45.4925C37.4329 43.3591 40.8126 42.0822 44.4915 42.0822C53.0566 42.0822 60 49.0034 60 57.5411C60 66.0788 53.0566 73 44.4915 73C39.5055 73 32.0339 73 32.0339 73Z" fill="#C8C8C8"/>
</svg>
